<svg version="1.2" xmlns="http://www.w3.org/2000/svg" viewBox="0 0 400 400" width="400" height="400">
	<title>logo-svg</title>
	<style>
		.s0 { fill: #f9332b;stroke: #000000;stroke-linecap: round;stroke-linejoin: round;stroke-width: 16 } 
	</style>
	<path id="Layer" fill-rule="evenodd" class="s0" d="m78.9 101.7c8.2-39 34.1-61.7 69.4-75.7 139.1-55.1 254.8 107.2 146 231.2-90.4 103.3-259.4 8-227.7-101.3"/>
	<path id="Layer" fill-rule="evenodd" class="s0" d="m206.2 255.4c5.9-9.3 24.6-19.6 36.5-15.7 30.7 10.1-2.3 58.6-23.4 60.3-34.6 2.6-29.9-46.3-8.5-58.5"/>
	<path id="Layer" fill-rule="evenodd" class="s0" d="m220.9 304.6q0 4.9-2.8 28.1-22 11.8-22 5.4c0-5.4-6.6-16-6.6-33.5"/>
	<path id="Layer" fill-rule="evenodd" class="s0" d="m204.5 338.8c49.6-13.6 35-6.2 29.3 46.3"/>
	<path id="Layer" fill-rule="evenodd" class="s0" d="m199.7 346.3c13.6 42.9-17.9 34.9-53.4 38.8"/>
	<path id="Layer" fill-rule="evenodd" class="s0" d="m186.6 303.5q-49 4.9-56.8-12.4"/>
	<path id="Layer" fill-rule="evenodd" class="s0" d="m220.9 302.9c19.5 1.1 59.7-10.2 59.7-25.2"/>
</svg>